<svg xmlns="http://www.w3.org/2000/svg" xmlns:xlink="http://www.w3.org/1999/xlink" width="2304" zoomAndPan="magnify" viewBox="0 0 1728 1295.99994" height="1728" preserveAspectRatio="xMidYMid meet" version="1.0"><defs><g/><clipPath id="f4093c0d73"><path d="M 787 254.445312 L 1299 254.445312 L 1299 765 L 787 765 Z M 787 254.445312 " clip-rule="nonzero"/></clipPath><clipPath id="7547d1048c"><path d="M 0.359375 217 L 369 217 L 369 638 L 0.359375 638 Z M 0.359375 217 " clip-rule="nonzero"/></clipPath><clipPath id="97ff9db163"><rect x="0" width="744" y="0" height="832"/></clipPath><clipPath id="3423cb1f52"><rect x="0" width="1316" y="0" height="832"/></clipPath><clipPath id="b31185f0c7"><rect x="0" width="635" y="0" height="95"/></clipPath></defs><g clip-path="url(#f4093c0d73)"><path fill="#252424" d="M 817 760.148438 C 799.238281 771.921875 778.867188 758.304688 790.589844 739.519531 C 802.363281 720.683594 1029.222656 392.320312 1042.789062 374.558594 C 1056.402344 356.792969 1069.710938 352.597656 1087.21875 355.71875 C 1104.722656 358.84375 1133.234375 364.320312 1144.957031 390.21875 C 1156.730469 416.121094 1170.039062 445.347656 1173.46875 450.875 C 1176.847656 456.351562 1183.652344 451.644531 1193.585938 446.167969 C 1203.515625 440.691406 1253.984375 419.242188 1272.003906 408.542969 C 1290.019531 397.847656 1306.246094 414.023438 1295.546875 428.917969 C 1284.851562 443.8125 1207.710938 518.546875 1197.011719 529.292969 C 1186.316406 539.992188 1160.160156 545.265625 1143.933594 525.917969 C 1135.332031 515.628906 1127.757812 506.925781 1122.535156 500.988281 C 1120.539062 498.683594 1117.980469 497.457031 1114.960938 497.25 C 1111.941406 497.046875 1109.226562 497.96875 1106.976562 500.015625 C 1019.191406 577.5625 904.734375 682.496094 817 760.148438 Z M 1164.816406 254.625 C 1192.253906 254.625 1214.46875 276.839844 1214.46875 304.277344 C 1214.46875 331.714844 1192.253906 353.929688 1164.816406 353.929688 C 1137.378906 353.929688 1115.164062 331.714844 1115.164062 304.277344 C 1115.164062 276.839844 1137.378906 254.625 1164.816406 254.625 Z M 1122.382812 534.15625 C 1135.949219 548.949219 1150.074219 564.460938 1156.21875 571.574219 C 1169.832031 587.238281 1171.878906 603.464844 1155.195312 619.128906 C 1138.457031 634.792969 1069.96875 682.90625 1042.789062 700.667969 C 1015.605469 718.429688 994.160156 705.378906 1009.3125 687.617188 C 1024.460938 669.855469 1052.71875 635.867188 1064.183594 621.738281 C 1069.300781 615.492188 1063.058594 606.84375 1052.769531 597.988281 C 1050.210938 595.785156 1048.828125 592.867188 1048.828125 589.4375 C 1048.828125 586.0625 1050.105469 583.09375 1052.667969 580.839844 L 1106.414062 533.289062 C 1111.121094 529.242188 1118.1875 529.601562 1122.382812 534.15625 Z M 993.851562 370.460938 C 988.425781 372.203125 982.796875 374.042969 976.910156 376.09375 C 929.921875 392.265625 866.140625 417.398438 844.695312 426.765625 C 823.246094 436.1875 832.664062 462.855469 854.625 458.65625 C 865.527344 456.558594 917.738281 447.804688 967.59375 439.511719 C 970.820312 439 973.378906 437.3125 975.167969 434.597656 C 986.890625 417.09375 997.640625 401.121094 1006.75 387.609375 C 1009.515625 383.515625 1009.363281 378.394531 1006.445312 374.453125 C 1003.476562 370.511719 998.5625 368.976562 993.851562 370.460938 Z M 993.851562 370.460938 " fill-opacity="1" fill-rule="evenodd"/></g><g transform="matrix(1, 0, 0, 1, 141, 42)"><g clip-path="url(#97ff9db163)"><g clip-path="url(#7547d1048c)"><g fill="#252424" fill-opacity="1"><g transform="translate(0.551722, 637.27988)"><g><path d="M 89.265625 -419.90625 L 367.65625 -419.90625 L 357.078125 -369.640625 L 221.53125 -369.640625 L 195.734375 -248.640625 L 308.8125 -248.640625 L 298.234375 -197.71875 L 185.15625 -197.71875 L 142.828125 0 L 0 0 Z M 89.265625 -419.90625 "/></g></g></g></g><g fill="#252424" fill-opacity="1"><g transform="translate(292.813092, 637.27988)"><g><path d="M 127.625 0 L -6.609375 0 L 53.5625 -284.34375 L 189.125 -284.34375 Z M 206.3125 -370.96875 C 206.3125 -360.832031 204.21875 -352.015625 200.03125 -344.515625 C 195.84375 -337.023438 190.332031 -330.632812 183.5 -325.34375 C 176.664062 -320.050781 168.835938 -316.082031 160.015625 -313.4375 C 151.203125 -310.789062 142.171875 -309.46875 132.921875 -309.46875 C 115.285156 -309.46875 100.515625 -313.65625 88.609375 -322.03125 C 76.703125 -330.40625 70.75 -343.632812 70.75 -361.71875 C 70.75 -371.414062 72.734375 -380.117188 76.703125 -387.828125 C 80.671875 -395.546875 86.070312 -401.9375 92.90625 -407 C 99.738281 -412.070312 107.671875 -415.929688 116.703125 -418.578125 C 125.742188 -421.222656 135.113281 -422.546875 144.8125 -422.546875 C 162.007812 -422.546875 176.554688 -418.359375 188.453125 -409.984375 C 200.359375 -401.609375 206.3125 -388.601562 206.3125 -370.96875 Z M 206.3125 -370.96875 "/></g></g></g><g fill="#252424" fill-opacity="1"><g transform="translate(454.150019, 637.27988)"><g><path d="M 30.421875 -284.34375 C 46.734375 -287.875 61.0625 -291.84375 73.40625 -296.25 C 85.75 -300.65625 97.097656 -306.164062 107.453125 -312.78125 C 117.816406 -319.394531 127.738281 -327.550781 137.21875 -337.25 C 146.695312 -346.945312 156.945312 -358.847656 167.96875 -372.953125 L 236.078125 -372.953125 L 216.890625 -284.34375 L 268.46875 -284.34375 L 259.875 -240.046875 L 207.640625 -240.046875 L 180.53125 -111.09375 C 178.320312 -100.957031 176.554688 -91.921875 175.234375 -83.984375 C 173.910156 -76.046875 173.25 -69.875 173.25 -65.46875 C 173.25 -56.644531 176.441406 -51.128906 182.828125 -48.921875 C 189.222656 -46.722656 201.238281 -45.625 218.875 -45.625 L 208.953125 0 C 205.867188 0.882812 201.128906 1.546875 194.734375 1.984375 C 188.347656 2.421875 181.296875 2.96875 173.578125 3.625 C 165.867188 4.289062 157.9375 4.734375 149.78125 4.953125 C 141.625 5.179688 134.457031 5.296875 128.28125 5.296875 C 117.257812 5.296875 106.457031 4.519531 95.875 2.96875 C 85.300781 1.425781 75.828125 -1.65625 67.453125 -6.28125 C 59.078125 -10.90625 52.351562 -17.625 47.28125 -26.4375 C 42.207031 -35.257812 39.671875 -47.164062 39.671875 -62.15625 C 39.671875 -67.445312 40 -74.0625 40.65625 -82 C 41.320312 -89.9375 42.757812 -98.753906 44.96875 -108.453125 L 72.734375 -240.046875 L 21.15625 -240.046875 Z M 30.421875 -284.34375 "/></g></g></g></g></g><g transform="matrix(1, 0, 0, 1, 207, 356)"><g clip-path="url(#3423cb1f52)"><g fill="#252424" fill-opacity="1"><g transform="translate(14.916085, 643.267009)"><g><path d="M 203.015625 -201.03125 C 203.453125 -203.226562 203.890625 -205.429688 204.328125 -207.640625 C 204.773438 -209.847656 205 -212.273438 205 -214.921875 C 205 -222.847656 203.566406 -230.226562 200.703125 -237.0625 C 197.835938 -243.894531 192.21875 -247.3125 183.84375 -247.3125 C 176.34375 -247.3125 168.84375 -244.113281 161.34375 -237.71875 C 153.851562 -231.332031 150.109375 -222.847656 150.109375 -212.265625 C 150.109375 -205.210938 151.984375 -199.59375 155.734375 -195.40625 C 159.484375 -191.21875 164.441406 -187.800781 170.609375 -185.15625 C 176.785156 -182.507812 183.726562 -180.304688 191.4375 -178.546875 C 199.15625 -176.785156 206.757812 -175.019531 214.25 -173.25 C 224.832031 -170.601562 234.863281 -167.40625 244.34375 -163.65625 C 253.820312 -159.914062 262.304688 -154.957031 269.796875 -148.78125 C 277.296875 -142.613281 283.25 -135.007812 287.65625 -125.96875 C 292.0625 -116.9375 294.265625 -105.804688 294.265625 -92.578125 C 294.265625 -74.066406 289.96875 -58.523438 281.375 -45.953125 C 272.78125 -33.390625 260.878906 -23.25 245.671875 -15.53125 C 230.460938 -7.820312 212.609375 -2.425781 192.109375 0.65625 C 171.609375 3.75 149.675781 5.296875 126.3125 5.296875 C 90.59375 5.296875 61.050781 2.648438 37.6875 -2.640625 C 14.320312 -7.929688 -1.984375 -13.003906 -11.234375 -17.859375 L 2.640625 -83.984375 L 91.921875 -83.984375 C 91.472656 -81.773438 91.25 -79.675781 91.25 -77.6875 C 91.25 -75.707031 91.25 -73.617188 91.25 -71.421875 C 91.25 -61.273438 93.5625 -53.226562 98.1875 -47.28125 C 102.820312 -41.332031 110.875 -38.359375 122.34375 -38.359375 C 135.125 -38.359375 144.269531 -41.992188 149.78125 -49.265625 C 155.289062 -56.535156 158.046875 -63.257812 158.046875 -69.4375 C 158.046875 -75.601562 155.726562 -81 151.09375 -85.625 C 146.46875 -90.257812 140.628906 -94.226562 133.578125 -97.53125 C 126.523438 -100.84375 118.695312 -103.707031 110.09375 -106.125 C 101.5 -108.550781 93.238281 -110.867188 85.3125 -113.078125 C 79.570312 -114.398438 73.066406 -116.601562 65.796875 -119.6875 C 58.523438 -122.78125 51.582031 -127.191406 44.96875 -132.921875 C 38.351562 -138.648438 32.84375 -146.03125 28.4375 -155.0625 C 24.03125 -164.101562 21.828125 -175.457031 21.828125 -189.125 C 21.828125 -208.519531 26.5625 -224.71875 36.03125 -237.71875 C 45.507812 -250.726562 57.851562 -261.203125 73.0625 -269.140625 C 88.28125 -277.078125 105.476562 -282.804688 124.65625 -286.328125 C 143.832031 -289.859375 163.117188 -291.625 182.515625 -291.625 C 206.765625 -291.625 229.6875 -289.421875 251.28125 -285.015625 C 272.882812 -280.609375 290.519531 -274.875 304.1875 -267.8125 L 288.984375 -201.03125 Z M 203.015625 -201.03125 "/></g></g></g><g fill="#252424" fill-opacity="1"><g transform="translate(304.549632, 643.267009)"><g><path d="M 165.984375 -284.34375 L 185.8125 -89.9375 L 290.296875 -284.34375 L 360.390625 -284.34375 L 201.03125 0 C 185.15625 27.769531 169.0625 49.148438 152.75 64.140625 C 136.4375 79.128906 118.691406 90.148438 99.515625 97.203125 C 80.335938 104.253906 59.175781 108.332031 36.03125 109.4375 C 12.894531 110.539062 -13.441406 111.09375 -42.984375 111.09375 L -33.0625 65.46875 C -18.507812 65.46875 -4.953125 65.242188 7.609375 64.796875 C 20.171875 64.359375 30.195312 63.039062 37.6875 60.84375 C 47.832031 58.195312 55.109375 53.457031 59.515625 46.625 C 63.921875 39.789062 66.125 29.757812 66.125 16.53125 C 66.125 7.71875 65.351562 -2.414062 63.8125 -13.875 C 62.269531 -25.34375 60.617188 -37.46875 58.859375 -50.25 L 26.453125 -284.34375 Z M 165.984375 -284.34375 "/></g></g></g><g fill="#252424" fill-opacity="1"><g transform="translate(614.021338, 643.267009)"><g><path d="M 177.21875 -242.03125 C 186.476562 -250.84375 196.835938 -259 208.296875 -266.5 C 218.441406 -272.664062 230.347656 -278.394531 244.015625 -283.6875 C 257.679688 -288.976562 272.890625 -291.625 289.640625 -291.625 C 312.566406 -291.625 331.523438 -285.78125 346.515625 -274.09375 C 361.503906 -262.414062 369 -246.4375 369 -226.15625 C 369 -220.425781 368.335938 -213.484375 367.015625 -205.328125 C 365.691406 -197.171875 364.144531 -188.679688 362.375 -179.859375 C 360.613281 -171.046875 358.738281 -162.117188 356.75 -153.078125 C 354.769531 -144.046875 353.117188 -136.003906 351.796875 -128.953125 L 324.03125 0 L 189.78125 0 L 226.15625 -172.59375 C 227.039062 -178.320312 228.144531 -184.160156 229.46875 -190.109375 C 230.789062 -196.066406 231.453125 -201.46875 231.453125 -206.3125 C 231.453125 -212.925781 229.796875 -218.328125 226.484375 -222.515625 C 223.179688 -226.703125 218.222656 -228.796875 211.609375 -228.796875 C 203.671875 -228.796875 196.066406 -225.929688 188.796875 -220.203125 C 181.523438 -214.472656 175.90625 -209.625 171.9375 -205.65625 L 128.28125 0 L -6.609375 0 L 53.5625 -284.34375 L 161.359375 -284.34375 L 173.25 -242.03125 Z M 177.21875 -242.03125 "/></g></g></g><g fill="#252424" fill-opacity="1"><g transform="translate(969.120601, 643.267009)"><g><path d="M 293.609375 -15.875 C 275.085938 -8.375 255.578125 -2.972656 235.078125 0.328125 C 214.578125 3.640625 191.328125 5.296875 165.328125 5.296875 C 142.398438 5.296875 121.347656 2.984375 102.171875 -1.640625 C 82.992188 -6.273438 66.347656 -13.660156 52.234375 -23.796875 C 38.128906 -33.941406 27.109375 -47.0625 19.171875 -63.15625 C 11.242188 -79.25 7.28125 -98.753906 7.28125 -121.671875 C 7.28125 -145.484375 11.351562 -167.640625 19.5 -188.140625 C 27.65625 -208.640625 40 -226.601562 56.53125 -242.03125 C 73.070312 -257.457031 94.125 -269.578125 119.6875 -278.390625 C 145.257812 -287.210938 175.679688 -291.625 210.953125 -291.625 C 239.609375 -291.625 264.515625 -289.304688 285.671875 -284.671875 C 306.835938 -280.046875 324.253906 -269.578125 337.921875 -253.265625 L 319.40625 -168.625 L 229.46875 -168.625 C 229.90625 -176.125 230.34375 -182.738281 230.78125 -188.46875 C 231.226562 -194.195312 231.453125 -200.585938 231.453125 -207.640625 C 231.453125 -221.742188 229.90625 -231.769531 226.8125 -237.71875 C 223.726562 -243.675781 218.660156 -246.65625 211.609375 -246.65625 C 199.265625 -246.65625 188.460938 -240.59375 179.203125 -228.46875 C 169.953125 -216.34375 162.347656 -201.796875 156.390625 -184.828125 C 150.441406 -167.859375 146.035156 -150.003906 143.171875 -131.265625 C 140.304688 -112.523438 138.875 -96.546875 138.875 -83.328125 C 138.875 -78.472656 139.09375 -73.507812 139.53125 -68.4375 C 139.96875 -63.375 140.957031 -58.632812 142.5 -54.21875 C 144.050781 -49.8125 146.144531 -46.285156 148.78125 -43.640625 C 151.425781 -40.992188 155.175781 -39.671875 160.03125 -39.671875 C 164.4375 -39.671875 169.503906 -40.992188 175.234375 -43.640625 C 180.972656 -46.285156 186.484375 -50.363281 191.765625 -55.875 C 197.054688 -61.382812 202.125 -68.546875 206.96875 -77.359375 C 211.820312 -86.179688 215.570312 -96.765625 218.21875 -109.109375 L 312.78125 -109.109375 Z M 293.609375 -15.875 "/></g></g></g></g></g><g transform="matrix(1, 0, 0, 1, 739, 1034)"><g clip-path="url(#b31185f0c7)"><g fill="#252424" fill-opacity="1"><g transform="translate(0.296069, 76.006708)"><g><path d="M 4.140625 0 L 4.140625 -54.765625 L 41.53125 -54.765625 L 41.53125 -44.015625 L 17.375 -44.015625 L 17.375 -32.78125 L 39.140625 -32.78125 L 39.140625 -22 L 17.375 -22 L 17.375 0 Z M 4.140625 0 "/></g></g></g><g fill="#252424" fill-opacity="1"><g transform="translate(39.565079, 76.006708)"><g><path d="M 17.375 -54.765625 L 17.375 0 L 4.140625 0 L 4.140625 -54.765625 Z M 17.375 -54.765625 "/></g></g></g><g fill="#252424" fill-opacity="1"><g transform="translate(56.346371, 76.006708)"><g><path d="M 2.359375 -44.015625 L 2.359375 -54.765625 L 48.640625 -54.765625 L 48.640625 -44.015625 L 32.03125 -44.015625 L 32.03125 0 L 18.984375 0 L 18.984375 -44.015625 Z M 2.359375 -44.015625 "/></g></g></g><g fill="#252424" fill-opacity="1"><g transform="translate(102.594405, 76.006708)"><g><path d="M 50.75 -54.765625 L 50.75 0 L 39.515625 0 L 17.734375 -31.609375 L 17.375 -31.609375 L 17.375 0 L 4.140625 0 L 4.140625 -54.765625 L 15.53125 -54.765625 L 37.09375 -23.203125 L 37.546875 -23.203125 L 37.546875 -54.765625 Z M 50.75 -54.765625 "/></g></g></g><g fill="#252424" fill-opacity="1"><g transform="translate(152.746303, 76.006708)"><g><path d="M 4.140625 0 L 4.140625 -54.765625 L 42.328125 -54.765625 L 42.328125 -44.015625 L 17.375 -44.015625 L 17.375 -32.78125 L 40.375 -32.78125 L 40.375 -22 L 17.375 -22 L 17.375 -10.75 L 42.328125 -10.75 L 42.328125 0 Z M 4.140625 0 "/></g></g></g><g fill="#252424" fill-opacity="1"><g transform="translate(194.475384, 76.006708)"><g><path d="M 33.75 -38.34375 C 33.570312 -40.300781 32.78125 -41.828125 31.375 -42.921875 C 29.976562 -44.023438 27.988281 -44.578125 25.40625 -44.578125 C 23.6875 -44.578125 22.253906 -44.351562 21.109375 -43.90625 C 19.972656 -43.457031 19.117188 -42.84375 18.546875 -42.0625 C 17.984375 -41.289062 17.691406 -40.40625 17.671875 -39.40625 C 17.640625 -38.59375 17.804688 -37.875 18.171875 -37.25 C 18.535156 -36.625 19.066406 -36.070312 19.765625 -35.59375 C 20.472656 -35.125 21.328125 -34.710938 22.328125 -34.359375 C 23.328125 -34.003906 24.453125 -33.691406 25.703125 -33.421875 L 30.40625 -32.359375 C 33.113281 -31.765625 35.503906 -30.976562 37.578125 -30 C 39.660156 -29.019531 41.410156 -27.851562 42.828125 -26.5 C 44.242188 -25.144531 45.316406 -23.582031 46.046875 -21.8125 C 46.773438 -20.050781 47.148438 -18.078125 47.171875 -15.890625 C 47.148438 -12.429688 46.273438 -9.460938 44.546875 -6.984375 C 42.816406 -4.503906 40.332031 -2.601562 37.09375 -1.28125 C 33.863281 0.03125 29.96875 0.6875 25.40625 0.6875 C 20.820312 0.6875 16.828125 0.00390625 13.421875 -1.359375 C 10.015625 -2.734375 7.363281 -4.816406 5.46875 -7.609375 C 3.582031 -10.410156 2.613281 -13.953125 2.5625 -18.234375 L 15.234375 -18.234375 C 15.347656 -16.472656 15.820312 -15.003906 16.65625 -13.828125 C 17.5 -12.648438 18.65625 -11.753906 20.125 -11.140625 C 21.59375 -10.535156 23.296875 -10.234375 25.234375 -10.234375 C 27.023438 -10.234375 28.546875 -10.472656 29.796875 -10.953125 C 31.054688 -11.441406 32.023438 -12.113281 32.703125 -12.96875 C 33.378906 -13.820312 33.726562 -14.800781 33.75 -15.90625 C 33.726562 -16.9375 33.40625 -17.820312 32.78125 -18.5625 C 32.15625 -19.3125 31.195312 -19.957031 29.90625 -20.5 C 28.613281 -21.039062 26.96875 -21.539062 24.96875 -22 L 19.25 -23.34375 C 14.507812 -24.425781 10.773438 -26.1875 8.046875 -28.625 C 5.316406 -31.0625 3.960938 -34.351562 3.984375 -38.5 C 3.960938 -41.882812 4.867188 -44.851562 6.703125 -47.40625 C 8.546875 -49.957031 11.085938 -51.945312 14.328125 -53.375 C 17.578125 -54.800781 21.273438 -55.515625 25.421875 -55.515625 C 29.671875 -55.515625 33.359375 -54.796875 36.484375 -53.359375 C 39.609375 -51.921875 42.035156 -49.910156 43.765625 -47.328125 C 45.492188 -44.742188 46.378906 -41.75 46.421875 -38.34375 Z M 33.75 -38.34375 "/></g></g></g><g fill="#252424" fill-opacity="1"><g transform="translate(239.466621, 76.006708)"><g><path d="M 33.75 -38.34375 C 33.570312 -40.300781 32.78125 -41.828125 31.375 -42.921875 C 29.976562 -44.023438 27.988281 -44.578125 25.40625 -44.578125 C 23.6875 -44.578125 22.253906 -44.351562 21.109375 -43.90625 C 19.972656 -43.457031 19.117188 -42.84375 18.546875 -42.0625 C 17.984375 -41.289062 17.691406 -40.40625 17.671875 -39.40625 C 17.640625 -38.59375 17.804688 -37.875 18.171875 -37.25 C 18.535156 -36.625 19.066406 -36.070312 19.765625 -35.59375 C 20.472656 -35.125 21.328125 -34.710938 22.328125 -34.359375 C 23.328125 -34.003906 24.453125 -33.691406 25.703125 -33.421875 L 30.40625 -32.359375 C 33.113281 -31.765625 35.503906 -30.976562 37.578125 -30 C 39.660156 -29.019531 41.410156 -27.851562 42.828125 -26.5 C 44.242188 -25.144531 45.316406 -23.582031 46.046875 -21.8125 C 46.773438 -20.050781 47.148438 -18.078125 47.171875 -15.890625 C 47.148438 -12.429688 46.273438 -9.460938 44.546875 -6.984375 C 42.816406 -4.503906 40.332031 -2.601562 37.09375 -1.28125 C 33.863281 0.03125 29.96875 0.6875 25.40625 0.6875 C 20.820312 0.6875 16.828125 0.00390625 13.421875 -1.359375 C 10.015625 -2.734375 7.363281 -4.816406 5.46875 -7.609375 C 3.582031 -10.410156 2.613281 -13.953125 2.5625 -18.234375 L 15.234375 -18.234375 C 15.347656 -16.472656 15.820312 -15.003906 16.65625 -13.828125 C 17.5 -12.648438 18.65625 -11.753906 20.125 -11.140625 C 21.59375 -10.535156 23.296875 -10.234375 25.234375 -10.234375 C 27.023438 -10.234375 28.546875 -10.472656 29.796875 -10.953125 C 31.054688 -11.441406 32.023438 -12.113281 32.703125 -12.96875 C 33.378906 -13.820312 33.726562 -14.800781 33.75 -15.90625 C 33.726562 -16.9375 33.40625 -17.820312 32.78125 -18.5625 C 32.15625 -19.3125 31.195312 -19.957031 29.90625 -20.5 C 28.613281 -21.039062 26.96875 -21.539062 24.96875 -22 L 19.25 -23.34375 C 14.507812 -24.425781 10.773438 -26.1875 8.046875 -28.625 C 5.316406 -31.0625 3.960938 -34.351562 3.984375 -38.5 C 3.960938 -41.882812 4.867188 -44.851562 6.703125 -47.40625 C 8.546875 -49.957031 11.085938 -51.945312 14.328125 -53.375 C 17.578125 -54.800781 21.273438 -55.515625 25.421875 -55.515625 C 29.671875 -55.515625 33.359375 -54.796875 36.484375 -53.359375 C 39.609375 -51.921875 42.035156 -49.910156 43.765625 -47.328125 C 45.492188 -44.742188 46.378906 -41.75 46.421875 -38.34375 Z M 33.75 -38.34375 "/></g></g></g><g fill="#252424" fill-opacity="1"><g transform="translate(284.457858, 76.006708)"><g/></g></g><g fill="#252424" fill-opacity="1"><g transform="translate(295.918014, 76.006708)"><g><path d="M 2.359375 -44.015625 L 2.359375 -54.765625 L 48.640625 -54.765625 L 48.640625 -44.015625 L 32.03125 -44.015625 L 32.03125 0 L 18.984375 0 L 18.984375 -44.015625 Z M 2.359375 -44.015625 "/></g></g></g><g fill="#252424" fill-opacity="1"><g transform="translate(342.166048, 76.006708)"><g><path d="M 4.140625 0 L 4.140625 -54.765625 L 26.765625 -54.765625 C 30.867188 -54.765625 34.410156 -54.023438 37.390625 -52.546875 C 40.378906 -51.078125 42.679688 -48.972656 44.296875 -46.234375 C 45.921875 -43.503906 46.734375 -40.269531 46.734375 -36.53125 C 46.734375 -32.726562 45.90625 -29.503906 44.25 -26.859375 C 42.59375 -24.210938 40.238281 -22.195312 37.1875 -20.8125 C 34.144531 -19.4375 30.535156 -18.75 26.359375 -18.75 L 12.0625 -18.75 L 12.0625 -29.171875 L 23.90625 -29.171875 C 25.90625 -29.171875 27.578125 -29.429688 28.921875 -29.953125 C 30.265625 -30.484375 31.28125 -31.285156 31.96875 -32.359375 C 32.664062 -33.441406 33.015625 -34.832031 33.015625 -36.53125 C 33.015625 -38.21875 32.664062 -39.617188 31.96875 -40.734375 C 31.28125 -41.847656 30.257812 -42.6875 28.90625 -43.25 C 27.550781 -43.8125 25.882812 -44.09375 23.90625 -44.09375 L 17.375 -44.09375 L 17.375 0 Z M 34.96875 -25.03125 L 48.609375 0 L 34.171875 0 L 20.796875 -25.03125 Z M 34.96875 -25.03125 "/></g></g></g><g fill="#252424" fill-opacity="1"><g transform="translate(387.264237, 76.006708)"><g><path d="M 15.984375 0 L 1.765625 0 L 20.234375 -54.765625 L 37.859375 -54.765625 L 56.34375 0 L 42.109375 0 L 29.25 -40.96875 L 28.828125 -40.96875 Z M 14.09375 -21.546875 L 43.828125 -21.546875 L 43.828125 -11.5 L 14.09375 -11.5 Z M 14.09375 -21.546875 "/></g></g></g><g fill="#252424" fill-opacity="1"><g transform="translate(440.624864, 76.006708)"><g><path d="M 53.859375 -34.921875 L 40.484375 -34.921875 C 40.304688 -36.296875 39.941406 -37.535156 39.390625 -38.640625 C 38.835938 -39.742188 38.101562 -40.6875 37.1875 -41.46875 C 36.28125 -42.257812 35.207031 -42.863281 33.96875 -43.28125 C 32.726562 -43.695312 31.363281 -43.90625 29.875 -43.90625 C 27.21875 -43.90625 24.929688 -43.253906 23.015625 -41.953125 C 21.097656 -40.648438 19.625 -38.769531 18.59375 -36.3125 C 17.570312 -33.851562 17.0625 -30.875 17.0625 -27.375 C 17.0625 -23.738281 17.582031 -20.695312 18.625 -18.25 C 19.664062 -15.800781 21.132812 -13.957031 23.03125 -12.71875 C 24.9375 -11.476562 27.1875 -10.859375 29.78125 -10.859375 C 31.25 -10.859375 32.582031 -11.046875 33.78125 -11.421875 C 34.988281 -11.796875 36.050781 -12.34375 36.96875 -13.0625 C 37.882812 -13.78125 38.640625 -14.660156 39.234375 -15.703125 C 39.835938 -16.742188 40.253906 -17.925781 40.484375 -19.25 L 53.859375 -19.171875 C 53.617188 -16.742188 52.914062 -14.351562 51.75 -12 C 50.582031 -9.644531 48.984375 -7.5 46.953125 -5.5625 C 44.921875 -3.632812 42.445312 -2.097656 39.53125 -0.953125 C 36.613281 0.179688 33.273438 0.75 29.515625 0.75 C 24.566406 0.75 20.132812 -0.335938 16.21875 -2.515625 C 12.300781 -4.703125 9.210938 -7.890625 6.953125 -12.078125 C 4.691406 -16.273438 3.5625 -21.375 3.5625 -27.375 C 3.5625 -33.40625 4.707031 -38.515625 7 -42.703125 C 9.300781 -46.890625 12.410156 -50.070312 16.328125 -52.25 C 20.253906 -54.425781 24.648438 -55.515625 29.515625 -55.515625 C 32.835938 -55.515625 35.90625 -55.050781 38.71875 -54.125 C 41.53125 -53.207031 44.003906 -51.867188 46.140625 -50.109375 C 48.285156 -48.359375 50.023438 -46.207031 51.359375 -43.65625 C 52.703125 -41.113281 53.535156 -38.203125 53.859375 -34.921875 Z M 53.859375 -34.921875 "/></g></g></g><g fill="#252424" fill-opacity="1"><g transform="translate(493.129881, 76.006708)"><g><path d="M 4.140625 0 L 4.140625 -54.765625 L 17.375 -54.765625 L 17.375 -31.609375 L 18.109375 -31.609375 L 36.203125 -54.765625 L 51.796875 -54.765625 L 32.375 -30.328125 L 52.140625 0 L 36.3125 0 L 22.671875 -21.53125 L 17.375 -14.84375 L 17.375 0 Z M 4.140625 0 "/></g></g></g><g fill="#252424" fill-opacity="1"><g transform="translate(541.249609, 76.006708)"><g><path d="M 4.140625 0 L 4.140625 -54.765625 L 42.328125 -54.765625 L 42.328125 -44.015625 L 17.375 -44.015625 L 17.375 -32.78125 L 40.375 -32.78125 L 40.375 -22 L 17.375 -22 L 17.375 -10.75 L 42.328125 -10.75 L 42.328125 0 Z M 4.140625 0 "/></g></g></g><g fill="#252424" fill-opacity="1"><g transform="translate(582.97869, 76.006708)"><g><path d="M 4.140625 0 L 4.140625 -54.765625 L 26.765625 -54.765625 C 30.867188 -54.765625 34.410156 -54.023438 37.390625 -52.546875 C 40.378906 -51.078125 42.679688 -48.972656 44.296875 -46.234375 C 45.921875 -43.503906 46.734375 -40.269531 46.734375 -36.53125 C 46.734375 -32.726562 45.90625 -29.503906 44.25 -26.859375 C 42.59375 -24.210938 40.238281 -22.195312 37.1875 -20.8125 C 34.144531 -19.4375 30.535156 -18.75 26.359375 -18.75 L 12.0625 -18.75 L 12.0625 -29.171875 L 23.90625 -29.171875 C 25.90625 -29.171875 27.578125 -29.429688 28.921875 -29.953125 C 30.265625 -30.484375 31.28125 -31.285156 31.96875 -32.359375 C 32.664062 -33.441406 33.015625 -34.832031 33.015625 -36.53125 C 33.015625 -38.21875 32.664062 -39.617188 31.96875 -40.734375 C 31.28125 -41.847656 30.257812 -42.6875 28.90625 -43.25 C 27.550781 -43.8125 25.882812 -44.09375 23.90625 -44.09375 L 17.375 -44.09375 L 17.375 0 Z M 34.96875 -25.03125 L 48.609375 0 L 34.171875 0 L 20.796875 -25.03125 Z M 34.96875 -25.03125 "/></g></g></g></g></g></svg>